<?xml version="1.0"?>
<svg xmlns="http://www.w3.org/2000/svg" xmlns:xlink="http://www.w3.org/1999/xlink" xmlns:svgjs="http://svgjs.com/svgjs" version="1.1" width="512" height="512" x="0" y="0" viewBox="0 0 1065 1065.0001" style="enable-background:new 0 0 512 512" xml:space="preserve"><g><g xmlns="http://www.w3.org/2000/svg" fill-rule="evenodd"><path d="m896.683594 243.300781c-10.582032-10.585937-25.214844-17.160156-41.328125-17.160156h-251.554688v-140.402344c0-48.375-39.386719-87.757812-87.757812-87.757812h-432.839844c-48.371094 0-87.757813 39.382812-87.757813 87.757812v826.460938c0 46.261719 37.863282 84.21875 84.214844 84.21875h439.917969c46.359375 0 84.210937-37.855469 84.210937-84.21875v-202.4375h251.5625c16.117188 0 30.75-6.578125 41.332032-17.164063 10.597656-10.589844 17.167968-25.21875 17.167968-41.339844v-366.613281c0-16.121093-6.566406-30.75-17.167968-41.34375zm-717.035156-186.816406h239.859374v33.390625c0 13.746094-11.355468 25.105469-25.097656 25.105469h-189.652344c-13.753906 0-25.097656-11.359375-25.097656-25.105469v-33.390625zm365.640624 855.714844c0 14.066406-11.652343 25.71875-25.710937 25.71875h-439.917969c-14.019531 0-25.707031-11.484375-25.707031-25.71875v-104.757813c15.828125 8.585938 33.929687 13.472656 53.128906 13.472656h385.007813c19.214844 0 37.355468-4.90625 53.199218-13.519531zm-53.199218-149.789063h-385.007813c-14.75 0-28.085937-5.914062-37.695312-15.46875-8.933594-8.867187-14.703125-20.917968-15.433594-34.28125v-626.921875c0-16.078125 13.179687-29.253906 29.25-29.253906h37.949219v33.390625c0 46.046875 37.566406 83.609375 83.605468 83.609375h189.652344c46.039063 0 83.605469-37.5625 83.605469-83.609375v-33.390625h38.023437c16.070313 0 29.25 13.175781 29.25 29.253906v140.402344h-273.007812c-16.117188 0-30.757812 6.574219-41.34375 17.160156-10.589844 10.59375-17.164062 25.222657-17.164062 41.34375v366.613281c0 16.121094 6.574218 30.75 17.164062 41.339844 10.585938 10.585938 25.226562 17.164063 41.34375 17.164063h273.007812c0 29.214843-23.902343 52.648437-53.199218 52.648437zm363.261718-111.160156c.003907.007812.011719.007812 0 .007812 0 .011719 0 .007813 0 0h-583.066406c0-10.972656-.003906-260.957031 0-366.613281 129.113282 0 583.078125 0 583.066406.003907zm0 0" fill="#ffffff" data-original="#000000" style=""/><path d="m299.625 851.140625c-16.113281 0-29.253906 13.136719-29.253906 29.25 0 16.109375 13.140625 29.253906 29.253906 29.253906s29.25-13.144531 29.25-29.253906c0-16.113281-13.136719-29.25-29.25-29.25zm0 0" fill="#ffffff" data-original="#000000" style=""/><path d="m360.03125 450.402344h15.601562c16.15625 0 29.25-13.101563 29.25-29.253906 0-16.15625-13.09375-29.25-29.25-29.25h-15.601562c-16.148438 0-29.25 13.09375-29.25 29.25 0 16.152343 13.101562 29.253906 29.25 29.253906zm0 0" fill="#ffffff" data-original="#000000" style=""/><path d="m360.03125 567.402344h284.710938c16.160156 0 29.25-13.09375 29.25-29.25 0-16.148438-13.089844-29.25-29.25-29.25h-284.710938c-16.148438 0-29.25 13.101562-29.25 29.25 0 16.15625 13.101562 29.25 29.25 29.25zm0 0" fill="#ffffff" data-original="#000000" style=""/><path d="m492.640625 450.402344h15.59375c16.160156 0 29.257813-13.101563 29.257813-29.253906 0-16.15625-13.097657-29.25-29.257813-29.25h-15.59375c-16.152344 0-29.257813 13.09375-29.257813 29.25 0 16.152343 13.105469 29.253906 29.257813 29.253906zm0 0" fill="#ffffff" data-original="#000000" style=""/><path d="m625.242188 450.402344h15.601562c16.152344 0 29.25-13.101563 29.25-29.253906 0-16.15625-13.097656-29.25-29.25-29.25h-15.601562c-16.148438 0-29.25 13.09375-29.25 29.25 0 16.152343 13.101562 29.253906 29.25 29.253906zm0 0" fill="#ffffff" data-original="#000000" style=""/><path d="m757.847656 450.402344h15.597656c16.160157 0 29.253907-13.101563 29.253907-29.253906 0-16.15625-13.09375-29.25-29.253907-29.25h-15.597656c-16.148437 0-29.253906 13.09375-29.253906 29.25 0 16.152343 13.105469 29.253906 29.253906 29.253906zm0 0" fill="#ffffff" data-original="#000000" style=""/></g></g></svg>
